<svg height="41" width="139" xmlns="http://www.w3.org/2000/svg"><g fill="#fff" fill-rule="evenodd"><path d="m.957 3.804v33.392a2.862 2.862 0 0 0 2.872 2.853h131.341a2.862 2.862 0 0 0 2.872-2.853v-33.392a2.862 2.862 0 0 0 -2.872-2.853h-131.34a2.862 2.862 0 0 0 -2.873 2.853zm-.957 0c0-2.1 1.714-3.804 3.829-3.804h131.341c2.116 0 3.83 1.703 3.83 3.804v33.392c0 2.1-1.714 3.804-3.829 3.804h-131.341c-2.116 0-3.83-1.703-3.83-3.804z" fill-rule="nonzero"/><path d="m.479 3.804v33.392c0 1.838 1.5 3.328 3.35 3.328h131.341c1.85 0 3.35-1.49 3.35-3.328v-33.392c0-1.838-1.5-3.328-3.35-3.328h-131.34c-1.85 0-3.35 1.49-3.35 3.328zm-.479 0c0-2.1 1.714-3.804 3.829-3.804h131.341c2.116 0 3.83 1.703 3.83 3.804v33.392c0 2.1-1.714 3.804-3.829 3.804h-131.341c-2.116 0-3.83-1.703-3.83-3.804z" fill-rule="nonzero"/><path d="m53.353 31.487h2.337l-5.115-14.075h-2.365l-5.114 14.075h2.257l1.306-3.736h5.399zm-4.073-11.52h.167l2.051 5.95h-4.28zm12.604.722c-1.453 0-2.71.722-3.357 1.932h-.157v-1.756h-2.032v14.065h2.11v-5.053h.167c.56 1.122 1.767 1.785 3.289 1.785 2.7 0 4.417-2.117 4.417-5.492s-1.718-5.482-4.437-5.482zm-.599 9.091c-1.767 0-2.876-1.385-2.876-3.6 0-2.223 1.11-3.608 2.886-3.608 1.787 0 2.857 1.356 2.857 3.6 0 2.252-1.07 3.608-2.867 3.608zm11.545-9.09c-1.453 0-2.71.721-3.358 1.93h-.157v-1.755h-2.031v14.065h2.11v-5.053h.167c.56 1.122 1.767 1.785 3.288 1.785 2.7 0 4.417-2.117 4.417-5.492s-1.716-5.48-4.436-5.48zm-.6 9.09c-1.766 0-2.875-1.385-2.875-3.6 0-2.223 1.109-3.608 2.886-3.608 1.786 0 2.856 1.356 2.856 3.6 0 2.252-1.07 3.608-2.866 3.608zm9.504-2.077c.157 2.516 2.267 4.126 5.409 4.126 3.357 0 5.457-1.688 5.457-4.38 0-2.117-1.197-3.287-4.103-3.96l-1.56-.38c-1.846-.43-2.592-1.005-2.592-2.01 0-1.268 1.158-2.097 2.896-2.097 1.649 0 2.788.81 2.994 2.107h2.14c-.128-2.37-2.229-4.039-5.105-4.039-3.092 0-5.153 1.668-5.153 4.175 0 2.068 1.168 3.297 3.73 3.892l1.826.44c1.875.438 2.7 1.082 2.7 2.155 0 1.248-1.297 2.156-3.064 2.156-1.894 0-3.21-.85-3.396-2.185zm12.683-9.413v2.624h-1.757v1.765h1.757v5.999c0 2.048.932 2.868 3.278 2.868a6.48 6.48 0 0 0 1.13-.108v-1.746c-.295.03-.462.05-.786.05-1.05 0-1.512-.488-1.512-1.6v-5.463h2.395v-1.765h-2.395v-2.624zm9.738 11.539c-1.836 0-2.866-1.336-2.866-3.658 0-2.302 1.03-3.648 2.866-3.648 1.826 0 2.866 1.346 2.866 3.648 0 2.312-1.04 3.658-2.866 3.658zm0 1.863c3.122 0 5.036-2.078 5.036-5.52 0-3.425-1.924-5.512-5.036-5.512-3.121 0-5.045 2.087-5.045 5.511 0 3.443 1.914 5.521 5.045 5.521zm5.998-.205h2.11v-6.272c0-1.492 1.13-2.497 2.72-2.497.353 0 1.001.068 1.168.127v-2.068c-.226-.059-.628-.088-.933-.088-1.394 0-2.571.761-2.876 1.805h-.157v-1.63h-2.032zm10.75-9.042c1.56 0 2.581 1.083 2.63 2.75h-5.399c.118-1.658 1.208-2.75 2.768-2.75zm2.62 6.174c-.392.83-1.266 1.288-2.542 1.288-1.688 0-2.778-1.18-2.847-3.043v-.117h7.549v-.732c0-3.336-1.796-5.355-4.77-5.355-3.014 0-4.928 2.156-4.928 5.55 0 3.395 1.874 5.482 4.937 5.482 2.444 0 4.152-1.17 4.633-3.073zm-78.45-22.194v6.703h2.436c2.01 0 3.174-1.231 3.174-3.373 0-2.108-1.174-3.33-3.174-3.33zm1.047.948h1.272c1.397 0 2.225.882 2.225 2.396 0 1.538-.814 2.411-2.225 2.411h-1.272zm8.247 4.965c-.874 0-1.365-.636-1.365-1.742 0-1.096.49-1.737 1.365-1.737.87 0 1.365.64 1.365 1.737 0 1.101-.496 1.742-1.365 1.742zm0 .887c1.486 0 2.398-.99 2.398-2.629 0-1.63-.916-2.624-2.398-2.624-1.487 0-2.403.994-2.403 2.624 0 1.64.912 2.63 2.403 2.63zm10.275-5.155h-1.005l-.907 3.86h-.08l-1.046-3.86h-.963l-1.047 3.86h-.075l-.912-3.86h-1.019l1.403 5.059h1.033l1.047-3.726h.08l1.05 3.726h1.043zm1.277 5.059h1.005v-2.96c0-.789.495-1.281 1.304-1.281.748 0 1.113.404 1.113 1.217v3.024h1.004v-3.276c0-1.203-.64-1.881-1.776-1.881-.766 0-1.36.339-1.608.9h-.075v-.802h-.967zm6.124 0h1.005v-7.034h-1.005v7.033zm4.9-.79c-.874 0-1.365-.636-1.365-1.742 0-1.096.49-1.737 1.365-1.737.87 0 1.365.64 1.365 1.737 0 1.101-.496 1.742-1.365 1.742zm0 .887c1.486 0 2.398-.99 2.398-2.629 0-1.63-.916-2.624-2.398-2.624-1.487 0-2.403.994-2.403 2.624 0 1.64.912 2.63 2.403 2.63zm5.507-.855c-.547 0-.944-.264-.944-.72 0-.445.318-.682 1.019-.729l1.243-.079v.423c0 .627-.56 1.105-1.318 1.105zm-.257.841c.668 0 1.225-.288 1.529-.794h.079v.71h.968v-3.455c0-1.069-.72-1.7-1.996-1.7-1.155 0-1.978.557-2.08 1.426h.972c.112-.358.5-.562 1.06-.562.688 0 1.043.302 1.043.836v.436l-1.379.08c-1.21.074-1.893.599-1.893 1.509 0 .924.715 1.514 1.697 1.514zm6.106 0c.7 0 1.294-.33 1.598-.882h.08v.799h.963v-7.034h-1.005v2.778h-.075c-.276-.558-.865-.887-1.561-.887-1.286 0-2.113 1.012-2.113 2.61 0 1.603.818 2.615 2.113 2.615zm.285-4.329c.841 0 1.37.664 1.37 1.719 0 1.059-.524 1.714-1.37 1.714-.851 0-1.36-.646-1.36-1.719 0-1.064.514-1.714 1.36-1.714zm9.107 3.456c-.874 0-1.365-.636-1.365-1.742 0-1.096.491-1.737 1.365-1.737.87 0 1.365.64 1.365 1.737 0 1.101-.495 1.742-1.365 1.742zm0 .887c1.487 0 2.398-.99 2.398-2.629 0-1.63-.916-2.624-2.398-2.624-1.486 0-2.402.994-2.402 2.624 0 1.64.911 2.63 2.402 2.63zm3.843-.097h1.005v-2.96c0-.789.496-1.281 1.305-1.281.747 0 1.112.404 1.112 1.217v3.024h1.005v-3.276c0-1.203-.64-1.881-1.776-1.881-.767 0-1.36.339-1.608.9h-.075v-.802h-.968zm9.29-6.285v1.25h-.837v.84h.837v2.857c0 .975.444 1.365 1.561 1.365a3.2 3.2 0 0 0 .538-.05v-.832c-.14.014-.22.023-.374.023-.5 0-.72-.232-.72-.762v-2.6h1.14v-.841h-1.14v-1.25zm3.577 6.285h1.005v-2.955c0-.766.51-1.282 1.332-1.282.757 0 1.136.41 1.136 1.217v3.02h1.005v-3.267c0-1.203-.654-1.886-1.8-1.886-.766 0-1.355.34-1.603.906h-.08v-2.787h-.995v7.033zm8.223-4.306c.743 0 1.23.515 1.253 1.31h-2.571c.056-.79.575-1.31 1.318-1.31zm1.248 2.94c-.187.395-.603.613-1.21.613-.805 0-1.323-.562-1.356-1.45v-.055h3.594v-.348c0-1.589-.855-2.55-2.271-2.55-1.435 0-2.347 1.026-2.347 2.643 0 1.616.893 2.61 2.351 2.61 1.164 0 1.978-.557 2.207-1.463zm-92.919 8.932c-.03-3.402 2.804-5.057 2.933-5.134-1.605-2.326-4.093-2.643-4.967-2.669-2.09-.218-4.116 1.243-5.18 1.243-1.086 0-2.726-1.222-4.492-1.186-2.274.035-4.4 1.343-5.567 3.374-2.407 4.141-.612 10.227 1.695 13.574 1.153 1.64 2.501 3.47 4.266 3.406 1.726-.07 2.371-1.094 4.454-1.094 2.064 0 2.67 1.094 4.47 1.051 1.852-.027 3.018-1.645 4.132-3.3 1.333-1.877 1.868-3.73 1.89-3.825-.043-.014-3.597-1.362-3.634-5.44m-3.399-10.005c.928-1.154 1.564-2.723 1.387-4.316-1.343.059-3.024.923-3.992 2.052-.856.994-1.62 2.624-1.423 4.157 1.51.112 3.06-.757 4.028-1.893"/></g></svg>