<svg width="142" height="42" xmlns="http://www.w3.org/2000/svg" xmlns:xlink="http://www.w3.org/1999/xlink"><defs><linearGradient x1="50%" y1="0%" x2="50%" y2="38.913%" id="b"><stop stop-color="#FBDA09" offset="0%"/><stop stop-color="#FFBC00" offset="100%"/></linearGradient><path d="M14.732 4.432L24.2 21.07a3.007 3.007 0 0 1-2.613 4.493H2.652A3.007 3.007 0 0 1 .038 21.07L9.506 4.43a3.007 3.007 0 0 1 5.226 0z" id="a"/><linearGradient x1="0%" y1="58.476%" x2="69.306%" y2="39.083%" id="c"><stop stop-color="#01E2FF" offset="0%"/><stop stop-color="#01C4FF" offset="100%"/></linearGradient><linearGradient x1="20.281%" y1="20.102%" x2="83.82%" y2="83.621%" id="e"><stop stop-color="#28D781" offset="0%"/><stop stop-color="#02F076" offset="100%"/></linearGradient><linearGradient x1="74.488%" y1="17.43%" x2="10.108%" y2="91.184%" id="f"><stop stop-color="#F2414E" offset="0%"/><stop stop-color="#E02554" offset="100%"/></linearGradient></defs><g fill="none" fill-rule="evenodd"><path d="M.955 4.773V37.15a3.82 3.82 0 0 0 3.82 3.819h132.45a3.82 3.82 0 0 0 3.82-3.82V4.774a3.82 3.82 0 0 0-3.82-3.818H4.775a3.82 3.82 0 0 0-3.82 3.818zm-.955 0A4.775 4.775 0 0 1 4.775 0h132.45A4.774 4.774 0 0 1 142 4.773V37.15a4.775 4.775 0 0 1-4.775 4.773H4.775A4.774 4.774 0 0 1 0 37.15V4.773z" fill="#FFF" fill-rule="nonzero"/><path d="M.477 4.773V37.15a4.297 4.297 0 0 0 4.298 4.296h132.45a4.297 4.297 0 0 0 4.298-4.296V4.773a4.297 4.297 0 0 0-4.298-4.296H4.775A4.297 4.297 0 0 0 .477 4.773zm-.477 0A4.775 4.775 0 0 1 4.775 0h132.45A4.774 4.774 0 0 1 142 4.773V37.15a4.775 4.775 0 0 1-4.775 4.773H4.775A4.774 4.774 0 0 1 0 37.15V4.773z" fill="#FFF" fill-rule="nonzero"/><g fill="#FFF"><path d="M75.25 13.936a3.437 3.437 0 1 1-.002-6.874 3.437 3.437 0 0 1 .001 6.874zm0-1.05a2.387 2.387 0 1 0 0-4.773 2.387 2.387 0 0 0 0 4.773zm-23.301-2.004v2.1h2.77v.763h-3.821V7.35h3.82v.764h-2.77v2.004h2.483v.764h-2.483zm6.494-2.768v5.631h-1.05V8.114h-1.624V7.35h4.297v.764h-1.623zm9.357 0v5.631h-1.05V8.114h-1.623V7.35h4.297v.764h-1.623zm-4.679-.764h1.05v6.395h-1.05zm17.476 0h.191l2.865 4.68V7.35h1.05v6.395h-1.05l-3.056-4.991v4.991h-1.05V7.35h1.05zm-33.635 2.88h2.877l-.029.91h-2.848z"/><path d="M49.273 8.09l-.659.656c-.41-.419-.993-.649-1.666-.649a2.433 2.433 0 0 0-2.434 2.431 2.433 2.433 0 0 0 2.434 2.431c1.345 0 2.3-.776 2.298-2.43.002-.103 0-.202-.007-.3h.84v.035c.316 2.317-1.264 3.65-3.16 3.634a3.374 3.374 0 0 1-3.374-3.37 3.372 3.372 0 0 1 3.375-3.369c.974 0 1.793.34 2.353.93z"/></g><g fill="#FFF"><path d="M103.134 18.805h5.414s3.116.53 3.116 4.107-3.116 4.107-3.116 4.107h-5.414v-8.214zm1.05 1.987V25.2h3.675s1.673 0 1.673-2.204-1.673-2.204-1.673-2.204h-3.675z"/><path d="M102.656 18.805h1.91v13.364h-1.91zm10.123-.001h1.91v13.364h-1.91zm8.988 12.409c-.526.434-1.367.842-2.695.925-3.043.19-3.045-2.586-3.045-2.773 0-.187-.15-2.451 2.271-2.81 1.714-.256 2.915.169 3.47.439V26.6c-.137-.52-.559-1.476-1.825-1.476-1.739 0-2.123.94-2.123.94l-1.59-.94s.89-1.834 3.56-1.834c3.322 0 3.888 2.29 3.888 3.061v5.811h-1.91v-.95zm-.136-2.863s-3.68-.991-3.807 1.075c-.128 2.066 3.53 1.074 3.856-.39 0-.466-.049-.685-.049-.685zm5.63 3.311l-3.405-8.084h1.91l2.45 5.817 2.43-5.77h1.91L127.39 35.89h-1.91l1.782-4.23zm-28.881-4.96l-6.04 2.495s.39 1.38 2.206 1.39c1.423.007 2.225-1.26 2.225-1.26l1.533 1.037s-1.237 2-3.77 2c-3.112 0-4.483-2.72-4.483-4.488 0-1.702 1.088-4.584 4.29-4.584s4.04 3.41 4.04 3.41zm-2.298-.707s-.76-1.156-1.925-.942c-2.466.45-2.155 2.607-2.155 2.607l4.08-1.665zm-8.896-7.19h2.02V32.14h-2.02zm-3.233 4.776l1.868.017v8.414c0 2.15-1.28 4.42-4.295 4.42-3.015 0-3.989-2.67-3.989-2.67l1.716-.722s.523 1.646 2.362 1.646c2.094 0 2.338-1.904 2.338-2.556v-.913s-.724 1.133-2.524 1.133c-1.951 0-4.27-1.67-4.27-4.52 0-2.848 2.184-4.477 4.293-4.537 1.689-.047 2.5 1.12 2.5 1.12v-.831zm-2.365 7.06c1.363 0 2.467-1.248 2.467-2.786 0-1.539-1.104-2.786-2.467-2.786-1.362 0-2.466 1.247-2.466 2.786 0 1.538 1.104 2.785 2.466 2.785zm-9.814 1.72a4.54 4.54 0 0 1-4.546-4.535 4.54 4.54 0 0 1 4.546-4.534 4.54 4.54 0 0 1 4.546 4.534 4.54 4.54 0 0 1-4.546 4.534zm-.03-1.779c1.412 0 2.556-1.234 2.556-2.756 0-1.522-1.144-2.756-2.556-2.756-1.41 0-2.555 1.234-2.555 2.756 0 1.522 1.144 2.756 2.555 2.756zm-9.806 1.779a4.54 4.54 0 0 1-4.546-4.535 4.54 4.54 0 0 1 4.546-4.534 4.54 4.54 0 0 1 4.547 4.534 4.54 4.54 0 0 1-4.547 4.534zm-.03-1.779c1.412 0 2.556-1.234 2.556-2.756 0-1.522-1.144-2.756-2.555-2.756-1.412 0-2.556 1.234-2.556 2.756 0 1.522 1.144 2.756 2.556 2.756zM50.2 24.728h6l-.059 1.897h-5.943z"/><path d="M55.02 20.266l-1.373 1.37c-.857-.874-2.074-1.353-3.477-1.353a5.074 5.074 0 0 0-5.082 5.068 5.074 5.074 0 0 0 5.082 5.067c2.806 0 4.798-1.618 4.794-5.067a6.7 6.7 0 0 0-.015-.623h1.754v.07c.66 4.83-2.639 7.612-6.593 7.576-3.89-.005-7.042-3.144-7.042-7.023 0-3.88 3.153-7.024 7.042-7.024 2.033 0 3.742.709 4.91 1.939z"/></g><g transform="translate(10.409 7.445)"><mask id="d" fill="#fff"><use xlink:href="#a"/></mask><use fill="url(#b)" transform="rotate(90 12.12 13.47)" xlink:href="#a"/><path fill="url(#c)" mask="url(#d)" d="M0-.01l13.349 13.263L-.172 27.039z"/><path fill="url(#e)" mask="url(#d)" d="M-2.745-2.74l16.092 15.996 4.785-4.562z"/><path fill="url(#f)" mask="url(#d)" d="M13.35 13.253l7.324 7.38-21.881 7.38z"/></g></g></svg>